<svg xmlns="http://www.w3.org/2000/svg" viewBox="0 0 100 100" fill="none">
  <!-- Fondo circular -->
  <circle cx="50" cy="50" r="48" fill="#E50000" stroke="#FFFFFF" stroke-width="2"/>
  
  <!-- Micrófono principal -->
  <path d="M50 25 C43 25 37 31 37 38 L37 58 C37 66 43 72 51 72 C59 72 65 66 65 58 L65 38 C65 31 59 25 52 25 Z" fill="#FFFFFF" stroke="#FFA500" stroke-width="1.5"/>
  
  <!-- Rejilla del micrófono -->
  <circle cx="50" cy="48" r="8" fill="none" stroke="#E50000" stroke-width="1.5" stroke-dasharray="2 2"/>
  <line x1="50" y1="40" x2="50" y2="56" stroke="#E50000" stroke-width="1.5"/>
  <line x1="42" y1="48" x2="58" y2="48" stroke="#E50000" stroke-width="1.5"/>
  
  <!-- Base del micrófono -->
  <rect x="47" y="72" width="6" height="6" fill="#FFFFFF" rx="1"/>
  
  <!-- Soporte del micrófono -->
  <path d="M40 78 L40 82 L60 82 L60 78" stroke="#FFFFFF" stroke-width="2.5" fill="none" stroke-linecap="round"/>
  
  <!-- Líneas de sonido (ondas) -->
  <path d="M20 50 Q15 45 10 50" stroke="#FFA500" stroke-width="2" fill="none" stroke-linecap="round" opacity="0.9"/>
  <path d="M90 50 Q85 45 80 50" stroke="#FFA500" stroke-width="2" fill="none" stroke-linecap="round" opacity="0.9"/>
  <path d="M15 50 Q10 40 5 50" stroke="#FFA500" stroke-width="1.5" fill="none" stroke-linecap="round" opacity="0.7"/>
  <path d="M85 50 Q90 40 95 50" stroke="#FFA500" stroke-width="1.5" fill="none" stroke-linecap="round" opacity="0.7"/>
</svg>
